REM DIRINDEX 1\2,1\3,1\4,1\5
REM DIRNAME cjc117,folder01,folder02,folder03,folder04
TITLE ""
FILE "DISC1Track12.mp3" MP3
  TRACK 01 AUDIO
    TITLE "0:"
    INDEX 01 00:00:00
  TRACK 02 AUDIO
    TITLE "2:cjc117_0423"
    INDEX 01 00:00:03
  TRACK 03 AUDIO
    TITLE "0:"
    INDEX 01 00:01:13
  TRACK 04 AUDIO
    TITLE "3:cjc117_0424"
    INDEX 01 00:01:54
  TRACK 05 AUDIO
    TITLE "4:cjc117_0425"
    INDEX 01 00:04:70
  TRACK 06 AUDIO
    TITLE "5:cjc117_0426"
    INDEX 01 00:08:60
  TRACK 07 AUDIO
    TITLE "0:"
    INDEX 01 00:11:50
  TRACK 08 AUDIO
    TITLE "3:cjc117_0427"
    INDEX 01 00:12:14
  TRACK 09 AUDIO
    TITLE "4:cjc117_0428"
    INDEX 01 00:14:37
  TRACK 10 AUDIO
    TITLE "5:cjc117_0429"
    INDEX 01 00:17:43
  TRACK 11 AUDIO
    TITLE "0:"
    INDEX 01 00:19:46
  TRACK 12 AUDIO
    TITLE "3:cjc117_0430"
    INDEX 01 00:20:08
  TRACK 13 AUDIO
    TITLE "4:cjc117_0431"
    INDEX 01 00:21:47
  TRACK 14 AUDIO
    TITLE "5:cjc117_0432"
    INDEX 01 00:24:08
  TRACK 15 AUDIO
    TITLE "0:"
    INDEX 01 00:25:45
  TRACK 16 AUDIO
    TITLE "3:cjc117_0433"
    INDEX 01 00:26:05
  TRACK 17 AUDIO
    TITLE "4:cjc117_0434"
    INDEX 01 00:29:46
  TRACK 18 AUDIO
    TITLE "5:cjc117_0435"
    INDEX 01 00:33:30
  TRACK 19 AUDIO
    TITLE "0:"
    INDEX 01 00:36:15
  TRACK 20 AUDIO
    TITLE "3:cjc117_0436"
    INDEX 01 00:36:54
  TRACK 21 AUDIO
    TITLE "4:cjc117_0437"
    INDEX 01 00:40:21
  TRACK 22 AUDIO
    TITLE "5:cjc117_0438"
    INDEX 01 00:44:05
  TRACK 23 AUDIO
    TITLE "0:"
    INDEX 01 00:46:64
  TRACK 24 AUDIO
    TITLE "3:cjc117_0439"
    INDEX 01 00:47:30
  TRACK 25 AUDIO
    TITLE "4:cjc117_0440"
    INDEX 01 00:50:48
  TRACK 26 AUDIO
    TITLE "5:cjc117_0441"
    INDEX 01 00:54:42
  TRACK 27 AUDIO
    TITLE "0:"
    INDEX 01 00:57:37
  TRACK 28 AUDIO
    TITLE "3:cjc117_0442"
    INDEX 01 00:57:72
  TRACK 29 AUDIO
    TITLE "4:cjc117_0443"
    INDEX 01 01:00:53
  TRACK 30 AUDIO
    TITLE "5:cjc117_0444"
    INDEX 01 01:03:65
  TRACK 31 AUDIO
    TITLE "0:"
    INDEX 01 01:06:04
  TRACK 32 AUDIO
    TITLE "3:cjc117_0445"
    INDEX 01 01:06:40
  TRACK 33 AUDIO
    TITLE "4:cjc117_0446"
    INDEX 01 01:07:64
  TRACK 34 AUDIO
    TITLE "5:cjc117_0447"
    INDEX 01 01:10:28
  TRACK 35 AUDIO
    TITLE "0:"
    INDEX 01 01:11:70
  TRACK 36 AUDIO
    TITLE "3:cjc117_0448"
    INDEX 01 01:12:30
  TRACK 37 AUDIO
    TITLE "4:cjc117_0449"
    INDEX 01 01:15:40
  TRACK 38 AUDIO
    TITLE "5:cjc117_0450"
    INDEX 01 01:19:05
  TRACK 39 AUDIO
    TITLE "0:"
    INDEX 01 01:21:45
  TRACK 40 AUDIO
    TITLE "3:cjc117_0451"
    INDEX 01 01:22:09
  TRACK 41 AUDIO
    TITLE "4:cjc117_0452"
    INDEX 01 01:23:52
  TRACK 42 AUDIO
    TITLE "5:cjc117_0453"
    INDEX 01 01:26:11
  TRACK 43 AUDIO
    TITLE "0:"
    INDEX 01 01:27:46
  TRACK 44 AUDIO
    TITLE "3:cjc117_0454"
    INDEX 01 01:28:08
  TRACK 45 AUDIO
    TITLE "4:cjc117_0455"
    INDEX 01 01:31:16
  TRACK 46 AUDIO
    TITLE "5:cjc117_0456"
    INDEX 01 01:33:74
  TRACK 47 AUDIO
    TITLE "0:"
    INDEX 01 01:35:53
  TRACK 48 AUDIO
    TITLE "3:cjc117_0457"
    INDEX 01 01:36:15
  TRACK 49 AUDIO
    TITLE "4:cjc117_0458"
    INDEX 01 01:38:18
  TRACK 50 AUDIO
    TITLE "5:cjc117_0459"
    INDEX 01 01:40:52
  TRACK 51 AUDIO
    TITLE "0:"
    INDEX 01 01:42:12
  TRACK 52 AUDIO
    TITLE "3:cjc117_0460"
    INDEX 01 01:42:47
  TRACK 53 AUDIO
    TITLE "4:cjc117_0461"
    INDEX 01 01:45:40
  TRACK 54 AUDIO
    TITLE "5:cjc117_0462"
    INDEX 01 01:48:63
  TRACK 55 AUDIO
    TITLE "0:"
    INDEX 01 01:51:09
  TRACK 56 AUDIO
    TITLE "3:cjc117_0463"
    INDEX 01 01:51:48
  TRACK 57 AUDIO
    TITLE "4:cjc117_0464"
    INDEX 01 01:55:46
  TRACK 58 AUDIO
    TITLE "5:cjc117_0465"
    INDEX 01 01:59:28
  TRACK 59 AUDIO
    TITLE "0:"
    INDEX 01 02:02:07
